<?xml version="1.0" standalone="no"?><!DOCTYPE svg PUBLIC "-//W3C//DTD SVG 1.1//EN" "http://www.w3.org/Graphics/SVG/1.1/DTD/svg11.dtd"><svg t="1640932406368" class="icon" viewBox="0 0 1024 1024" version="1.1" xmlns="http://www.w3.org/2000/svg" p-id="3130" xmlns:xlink="http://www.w3.org/1999/xlink" width="128" height="128"><defs><style type="text/css"></style></defs><path d="M834.89882249 249.64470674v-58.78864433c0-21.05861885-16.67140661-38.60746793-37.73002543-38.60746792H216.30189355c-21.05861885 0-37.73002548 16.67140661-37.73002545 37.73002551v59.66608674h656.32695439zM175.06209827 344.40849159v508.03917996c0 21.05861885 16.67140661 37.73002548 37.73002547 37.73002543h188.65012726c24.56838868 0 44.74956507 20.18117638 44.74956507 44.74956506s-20.18117638 44.74956507-44.74956507 44.74956508H200.5079294c-63.17585653 0-114.06751879-51.7691047-114.06751881-114.94496129V175.06209827c0-63.17585653 50.89166226-114.94496126 114.06751881-114.94496124h610.69994686c63.17585653 0 114.06751879 51.7691047 114.06751881 114.94496124v308.85974323c0 26.32327357-21.05861885 46.50445-46.50444996 46.50445-26.32327357 0-46.50445-21.05861885-46.50444997-46.50445V344.40849159H175.06209827z m392.21677626 163.20429614c0 25.4458311-20.18117638 45.62700751-45.62700758 45.62700753H281.23263505c-25.4458311 0-45.62700751-20.18117638-45.62700755-45.62700753 0-25.4458311 20.18117638-45.62700751 45.62700755-45.62700749H520.77442453c25.4458311 0 46.50445 21.05861885 46.50445 45.62700749zM468.12787739 658.53288956c0 25.4458311-20.18117638 45.62700751-45.62700755 45.62700755h-140.3907924c-25.4458311 0-45.62700751-20.18117638-45.62700749-45.62700755 0-25.4458311 20.18117638-45.62700751 45.62700749-45.62700752h140.3907924c25.4458311 0 45.62700751 20.18117638 45.62700755 45.62700752z m484.34823369 157.9396414c14.9165217-14.9165217 14.9165217-39.48491038 0-54.40143203L799.80112437 608.51866977c-14.9165217-14.9165217-38.60746793-14.9165217-53.52398958 0-14.9165217 14.9165217-14.9165217 39.48491038 0 54.40143204l87.74424521 87.74424526h-213.21851588c-21.05861885 0-37.73002548 17.54884903-37.73002549 38.60746788s16.67140661 38.60746793 37.73002549 38.60746793h213.21851588l-87.74424521 87.74424522c-7.0195396 7.89698208-11.40675188 17.54884903-11.40675191 27.20071603 0 21.05861885 16.67140661 38.60746793 37.73002548 38.60746788 10.52930944 0 20.18117638-4.38721227 27.20071601-11.40675185l152.67498671-153.5524292z" p-id="3131"></path></svg>