<?xml version="1.0" standalone="no"?><!DOCTYPE svg PUBLIC "-//W3C//DTD SVG 1.1//EN" "http://www.w3.org/Graphics/SVG/1.1/DTD/svg11.dtd"><svg t="1640933884138" class="icon" viewBox="0 0 1024 1024" version="1.1" xmlns="http://www.w3.org/2000/svg" p-id="3980" xmlns:xlink="http://www.w3.org/1999/xlink" width="128" height="128"><defs><style type="text/css"></style></defs><path d="M409.6 112l62.4 0 0 41.6-43.2 0c-16 0-28.8 12.8-28.8 30.4 0 16 12.8 30.4 28.8 30.4l174.4 0c16 0 28.8-12.8 28.8-30.4 0-16-12.8-30.4-28.8-30.4l-43.2 0L560 112l64 0c16 0 28.8-12.8 28.8-30.4 0-16-12.8-30.4-28.8-30.4L409.6 51.2c-16 0-28.8 12.8-28.8 30.4C382.4 99.2 395.2 112 409.6 112L409.6 112zM409.6 112" p-id="3981" ></path><path d="M281.6 376c0 19.2 12.8 35.2 28.8 35.2l412.8 0c16 0 28.8-16 28.8-35.2 0-19.2-12.8-35.2-28.8-35.2L310.4 340.8C294.4 340.8 281.6 356.8 281.6 376L281.6 376zM281.6 376" p-id="3982" ></path><path d="M281.6 539.2c0 19.2 12.8 35.2 28.8 35.2l412.8 0c16 0 28.8-16 28.8-35.2 0-19.2-12.8-35.2-28.8-35.2L310.4 504C294.4 504 281.6 520 281.6 539.2L281.6 539.2zM281.6 539.2" p-id="3983" ></path><path d="M281.6 699.2c0 19.2 12.8 35.2 28.8 35.2l252.8 0c16 0 28.8-16 28.8-35.2 0-19.2-12.8-35.2-28.8-35.2L310.4 664C294.4 664 281.6 680 281.6 699.2L281.6 699.2zM281.6 699.2" p-id="3984" ></path><path d="M932.8 795.2c0 0 0-563.2 0-564.8-1.6-16-4.8-32-11.2-44.8-12.8-28.8-33.6-46.4-52.8-56-27.2-14.4-54.4-16-57.6-16 0 0 0 0 0 0l-49.6 0 0 0c-16 0-28.8 12.8-28.8 28.8 0 16-1.6 40 12.8 44.8l49.6 0c1.6 0 17.6 1.6 32 9.6 19.2 11.2 30.4 28.8 32 56 0 3.2 0 577.6 0 577.6 0 41.6-32 75.2-70.4 75.2L550.4 905.6l0 0L243.2 905.6c-38.4 0-70.4-33.6-70.4-75.2 0 0 0-574.4 0-577.6 3.2-27.2 14.4-44.8 32-56 16-9.6 30.4-9.6 32-9.6l49.6 0c19.2-9.6 12.8-28.8 12.8-44.8 0-16-12.8-28.8-28.8-28.8l0 0-49.6 0c0 0 0 0 0 0-3.2 0-28.8 0-57.6 16-27.2 14.4-59.2 44.8-64 105.6 0 1.6 0 3.2 0 4.8 0 1.6 0 3.2 0 4.8l0 600c0 72 57.6 131.2 128 131.2l577.6 0c70.4 0 128-57.6 128-131.2C932.8 844.8 932.8 825.6 932.8 795.2L932.8 795.2zM932.8 795.2" p-id="3985" ></path><path d="M585.6 878.4c4.8 4.8 11.2 8 17.6 8 6.4 0 12.8-3.2 17.6-8l174.4-169.6c9.6-9.6-6.4-25.6-16-36.8-9.6-9.6-20.8-17.6-36.8 0l-140.8 136-40-38.4c-9.6-9.6-25.6-9.6-36.8 0-9.6 9.6-28.8 20.8 0 52.8L585.6 878.4 585.6 878.4zM585.6 878.4" p-id="3986"></path></svg>