<svg t="1640934885630" class="icon" viewBox="0 0 1024 1024" version="1.1" xmlns="http://www.w3.org/2000/svg" p-id="6474" width="128" height="128"><path d="M906.176 86.144c12.8 6.464 21.44 17.152 21.76 29.184v872.896c0 19.84-22.144 35.776-49.28 35.776H145.088c-27.136 0-49.088-16-49.088-35.84V115.392c0-13.056 9.472-24.448 23.744-30.72L235.328 9.088a63.488 63.488 0 0 1 65.664 0l88.96 58.176 88.96-58.112a63.488 63.488 0 0 1 65.6 0l88.96 58.112L722.56 9.152a63.488 63.488 0 0 1 65.6 0l118.016 76.992z m-39.808 871.04h-0.128v1.344V132.608l-93.376-49.472-94.976 59.52c-19.84 12.416-49.92 12.416-69.952 0l-94.976-59.52-94.976 59.52c-19.776 12.416-49.92 12.416-69.824 0l-95.104-59.52-94.72 49.472v824.512h708.032z m-196.352-282.752c16.384 0 29.632 11.264 29.632 25.344 0 13.952-13.248 25.408-29.632 25.408H353.92c-16.256 0-29.44-11.456-29.44-25.408 0-14.08 13.184-25.344 29.44-25.344h316.16z m0 137.408c16.384 0 29.632 11.392 29.632 25.408 0 13.952-13.248 25.344-29.632 25.344H353.92c-16.256 0-29.44-11.392-29.44-25.344 0-14.016 13.184-25.408 29.44-25.408h316.16zM478.272 512.64H408.448a18.88 18.88 0 0 1-15.04-8.512 37.952 37.952 0 0 1-6.336-17.28 28.416 28.416 0 0 1 6.336-15.552 21.056 21.056 0 0 1 15.04-6.848h69.824v-23.872L408.448 440.32a20.736 20.736 0 0 1-15.04-7.104 30.528 30.528 0 0 1-6.336-16.384 28.416 28.416 0 0 1 6.336-15.616 21.056 21.056 0 0 1 15.04-6.848h52.16l-48.576-89.472a57.088 57.088 0 0 1-6.784-11.52 32.384 32.384 0 0 1-2.88-15.36 36.224 36.224 0 0 1 7.296-17.28c3.584-4.416 10.432-7.232 20.224-8.448 5.824 0.448 10.88 2.56 15.68 6.336 4.608 3.648 8.32 7.616 11.264 11.904l55.04 105.344 60.544-106.112a47.168 47.168 0 0 1 11.264-11.392 34.048 34.048 0 0 1 15.616-6.08 56.896 56.896 0 0 1 9.984 1.472c3.008 0.768 5.696 2.048 8 3.84a21.76 21.76 0 0 1 5.696 7.616 44.16 44.16 0 0 1 3.52 12.928 34.432 34.432 0 0 1-7.296 20.8l-56.128 95.552h53.248a21.44 21.44 0 0 1 14.912 6.848 25.472 25.472 0 0 1 6.08 15.616 29.056 29.056 0 0 1-6.336 16.64 21.184 21.184 0 0 1-15.04 7.616l-69.12 0.384v23.04H616.32a19.84 19.84 0 0 1 14.72 7.68c3.712 4.48 5.76 9.984 6.272 16.32a27.712 27.712 0 0 1-6.208 16.512 20.224 20.224 0 0 1-14.912 7.36l-69.504-0.384v40.128c-0.96 21.44-12.224 32.192-33.728 32.192-10.688 0-18.88-2.688-24.704-8-5.952-5.184-9.152-13.312-9.728-24.192v-39.68h-0.256z"  p-id="6475"></path></svg>