<svg t="1640934437381" class="icon" viewBox="0 0 1024 1024" version="1.1" xmlns="http://www.w3.org/2000/svg" p-id="13838" width="128" height="128"><path d="M1006.933333 887.466667H385.706667v-68.266667h552.96V68.266667h-546.133334v462.165333h-68.266666V0h682.666666v887.466667z" p-id="13839"></path><path d="M85.333333 1024H17.066667V531.114667l318.805333-281.941334 45.056 51.2L85.333333 561.152V1024z" p-id="13840"></path><path d="M279.893333 979.626667l-48.469333-48.469334 341.333333-341.333333a58.709333 58.709333 0 0 0 0-88.064c-19.797333-19.797333-58.026667-3.413333-86.016 13.653333a415.744 415.744 0 0 0-68.266666 54.613334l-157.013334 157.013333-48.469333-48.469333 157.013333-157.013334c16.384-16.384 163.157333-158.378667 253.269334-68.266666a126.976 126.976 0 0 1 0 185.002666zM768 68.266667h68.266667v750.933333h-68.266667z" p-id="13841"></path></svg>