<svg t="1640934526912" class="icon" viewBox="0 0 1024 1024" version="1.1" xmlns="http://www.w3.org/2000/svg" p-id="2042" width="128" height="128"><path d="M783.56992 936.96c-13.2864 0-22.13376-11.06944-22.13376-22.13888 0-185.96864-152.76032-338.72384-338.72384-338.72384h-4.42368c-185.96352 0-338.71872 152.7552-338.71872 338.72384 0 13.27616-11.06944 22.13888-22.13888 22.13888s-22.13888-11.06944-22.13888-22.13888c0-168.25344 108.48256-316.58496 267.87328-367.49824l13.28128-4.4288-13.28128-6.64064c-75.26912-46.49472-119.54688-128.40448-119.54688-216.96 0-141.68576 115.11808-256.80384 256.80896-256.80384 141.68576 0 256.80384 115.11808 256.80384 256.80384 0 92.98432-50.91328 181.53984-135.04512 225.81248l-13.2864 6.63552 13.2864 4.43392c148.33152 57.55904 243.52256 199.2448 243.52256 356.4288 0 13.2864-11.06944 24.35584-22.13888 24.35584zM440.42752 108.97408c-115.1232 0-210.31424 95.19616-210.31424 210.31424 0 115.1232 95.19104 210.30912 210.31424 210.30912 115.11808 0 210.31424-95.18592 210.31424-210.30912 0-115.11808-95.19616-210.31424-210.31424-210.31424z" p-id="2043"></path><path d="M292.096 339.21536h-4.42368c-13.28128-2.21184-22.13888-15.49312-19.92704-28.77952 22.13888-135.04512 130.61632-154.97216 135.04-154.97216 13.28128-2.21696 26.56768 6.64064 28.78464 19.92192 2.21184 11.06944-6.64064 24.35584-19.92704 26.56768-4.4288 0-79.69792 15.49824-95.19616 115.11808-2.21184 13.2864-13.28128 22.144-24.35072 22.144z m101.8368 535.75168l15.49824-216.94976c0-13.2864 11.06944-24.35584 26.56256-24.35584 13.28128 0 26.56768 11.06944 26.56768 24.35584l15.49312 216.94976-44.27776 35.42528-39.84384-35.42528z m307.72736-318.79168h-6.64064c-13.2864 0-22.13888-11.06944-22.13888-22.13888 0-13.2864 11.06944-22.13376 22.13888-22.13376 84.12672 2.21184 154.97216-61.99296 159.39584-146.11968 2.21696-64.2048-35.42528-121.75872-92.9792-146.11456-8.8576-4.4288-17.7152-6.64064-24.35584-8.85248-11.06944-2.21696-19.92704-15.49824-17.7152-26.56768 2.22208-11.06944 15.50336-19.92704 26.5728-17.70496 11.06432 2.21184 22.13376 6.64064 33.2032 11.06944 75.26912 30.99136 123.97568 108.47744 121.75872 188.17536-6.63552 106.26048-92.9792 190.3872-199.23968 190.3872z" p-id="2044"></path><path d="M971.7504 837.33504c-13.2864 0-22.13888-11.06432-22.13888-22.13376 2.21184-66.41664-22.13888-128.4096-66.41664-177.11104-44.27264-48.71168-106.2656-77.4912-172.68224-79.69792h-15.49312c-13.2864 0-22.13888-11.06944-22.13888-22.13888 0-13.2864 11.06944-22.13888 22.13888-22.13888h15.49312c77.48608 2.21184 150.53824 35.42016 203.66848 92.9792 53.14048 57.55904 81.91488 132.82816 77.48608 210.31424 2.22208 11.06944-6.63552 19.92704-19.9168 19.92704z" p-id="2045"></path></svg>