<?xml version="1.0" standalone="no"?><!DOCTYPE svg PUBLIC "-//W3C//DTD SVG 1.1//EN" "http://www.w3.org/Graphics/SVG/1.1/DTD/svg11.dtd"><svg t="1640932577717" class="icon" viewBox="0 0 1024 1024" version="1.1" xmlns="http://www.w3.org/2000/svg" p-id="5358" xmlns:xlink="http://www.w3.org/1999/xlink" width="128" height="128"><defs><style type="text/css"></style></defs><path d="M566.391219 933.281066h-355.917941c-27.429766 0-49.77499-22.345224-49.77499-49.77499V140.493924c0-27.429766 22.345224-49.77499 49.77499-49.77499h615.497191c27.429766 0 49.77499 22.345224 49.77499 49.77499v403.418267c0 20.338168 16.45786 36.796028 36.796028 36.796028s36.796028-16.45786 36.796028-36.796028V140.493924c0-67.972298-55.394747-123.367046-123.367046-123.367046h-615.497191c-67.972298 0-123.367046 55.394747-123.367045 123.367046v742.878348c0 67.972298 55.394747 123.367046 123.367045 123.367046h355.917941c20.338168 0 36.796028-16.45786 36.796028-36.796028s-16.45786-36.662224-36.796028-36.662224z" p-id="5359"></path><path d="M661.525676 524.778257h-106.373971v-47.767934h130.458644c20.338168 0 36.796028-16.45786 36.796028-36.796028s-16.45786-36.796028-36.796028-36.796028h-130.458644v-18.464915l125.641709-127.514962c14.317-14.450804 14.049392-37.732654-0.401411-52.049654s-37.732654-14.049392-52.049654 0.401412l-109.986671 111.592316-109.986672-111.592316c-14.317-14.450804-37.59885-14.584607-52.049654-0.401412-14.450804 14.317-14.584607 37.59885-0.401411 52.049654l125.641709 127.514962v18.464915h-130.458644c-20.338168 0-36.796028 16.45786-36.796028 36.796028s16.45786 36.796028 36.796028 36.796028h130.458644v47.767934h-106.373971c-20.338168 0-36.796028 16.45786-36.796028 36.796028s16.45786 36.796028 36.796028 36.796027h106.373971v77.606168c0 20.338168 16.45786 36.796028 36.796028 36.796028s36.796028-16.45786 36.796027-36.796028v-77.606168h106.373971c20.338168 0 36.796028-16.45786 36.796028-36.796027s-16.45786-36.796028-36.796028-36.796028zM835.871946 655.638312h-24.352281v-17.260682c0-22.345224-27.028355-33.584738-42.950999-17.795897L721.202143 667.948256c-9.767673 9.767673-9.767673 25.690318 0 35.591794l47.366523 47.366523c15.788841 15.788841 42.951 4.683131 42.950999-17.795897V715.849993h24.352281c63.422971 0 114.93741 51.648243 114.93741 114.937411 0 63.422971-51.648243 114.93741-114.93741 114.93741h-116.944467c-16.591663 0-30.105841 13.514177-30.10584 30.105841s13.514177 30.105841 30.10584 30.10584h116.944467c96.606298 0 175.149092-78.542794 175.149092-175.149091S932.478244 655.638312 835.871946 655.638312z" p-id="5360"></path></svg>